<svg xmlns="http://www.w3.org/2000/svg" viewBox="0 0 52.49 51.54"><defs><style>.cls-1{fill:#222221;}.cls-2{fill:#a8a8a3;}</style></defs><title>tornillo-gris</title><g id="Object"><path class="cls-1" d="M46.23,9.84a.56.56,0,0,0-.57,0,1.07,1.07,0,0,0-1.41.34,20.35,20.35,0,0,1-2.81,3.46c-1.58,1.49-3,1-4.15-.68-1-1.46-1.21-2.67,0-4a16.45,16.45,0,0,0,2.7-3,1,1,0,0,0,.42-1.65c-4.64-4.8-22.56-7.6-21.81,2.94a.36.36,0,0,0,.21.31s0,0,0,.07a66.58,66.58,0,0,0,5.85,6,4.66,4.66,0,0,0-3.14,4.21,4.78,4.78,0,0,0,.08.75c-2.13.3-4.78,1.74-4.66,4.14h0a9.54,9.54,0,0,0-3.56,4.42.48.48,0,0,0-.56-.11,6.38,6.38,0,0,0-4,4.72c-2.13.32-4.26,1.7-4.38,3.83a4.75,4.75,0,0,0-3.19,4.62c-1.56,3.08-2.14,7.3.63,9.85,3.27,3,10.1.69,13.66-.44a1,1,0,0,0,.69-1.25c2-.46,4.24-1.77,4.36-3.94a.76.76,0,0,0,0-.21l.66-.09c1.93-.41,3.6-2.87,2.74-4.71a4.76,4.76,0,0,0,3.84-4.57c2.33-.33,3.94-1.2,2.95-3.15a.76.76,0,0,0-.08-.11c.15,0,.29,0,.44,0,2.21-.14,4.14-1.86,3.58-4.09a5.78,5.78,0,0,0,3.84-.88,37.37,37.37,0,0,0,5.32,5.12.86.86,0,0,0,1.17-.17.85.85,0,0,0,.55-.11C54.55,26.15,54.8,15.41,46.23,9.84ZM4.51,49.12c-3-.53-3-4.31-2.71-7.12a10.69,10.69,0,0,0,4.54,4.39,16.29,16.29,0,0,0,5.87,2A18.17,18.17,0,0,1,4.51,49.12Zm10.36-2.6a13.35,13.35,0,0,1-6.62-1.41,10.35,10.35,0,0,1-4.51-3.62c-1.14-1.78-.24-3.3.9-4.68.8,2.85,4.61,4.7,7.07,5.73a20.65,20.65,0,0,0,7,1.78C17.56,45.51,16.82,46.34,14.87,46.52Zm5.35-4.22c-2.43.29-5-.53-7.26-1.38a14.62,14.62,0,0,1-6-3.8c-1.66-1.94.32-3.24,1.87-4.32a4.63,4.63,0,0,0,.09.49c.61,2.63,3.57,4.38,5.87,5.3a17.58,17.58,0,0,0,7.09,1.17C22,41.08,22.29,42.05,20.22,42.3ZM16.13,37a9.13,9.13,0,0,1-5.07-3.62c-1.25-2.15.81-4,2.2-5.48a4.79,4.79,0,0,0,.11,2c.67,2.43,3.36,3.72,5.54,4.44a29.54,29.54,0,0,0,7,.66C25.31,39.09,18.92,38,16.13,37ZM29.42,31.7c-1.74,2.5-6.8,1.49-9.25.87-1.68-.43-3.61-1.19-4.6-2.7-1.24-1.89.55-4.23,1.79-5.77.9,2.24,3.23,3.87,5.22,5a17.8,17.8,0,0,0,7,2.44A.67.67,0,0,0,29.42,31.7Zm.95-2.14a14.75,14.75,0,0,1-6.45-2,11.3,11.3,0,0,1-4.61-3.91c-1.21-2.08,1.13-3.23,2.62-4.13a10.78,10.78,0,0,0,3.75,4.39A19.29,19.29,0,0,0,33,27.26C32.62,29,32.34,29.59,30.37,29.56Zm3.8-4.2A16.33,16.33,0,0,1,28.1,23c-1.65-1-3.49-2.45-4.22-4.32s.64-3,2-4c2.34,2.1,4.76,4.11,7.15,6.17a45.4,45.4,0,0,1,4,4.07A4.73,4.73,0,0,1,34.17,25.36Zm10.49,4.43c-3.77-3.1-6.55-7.17-10.21-10.4C29.6,15.1,24.34,11.31,19.65,6.84l0,0c3.07-7,14.11-5.57,19.15-1.28a13.27,13.27,0,0,0-4.13,3.61c-1.21,1.95.48,4.5,1.67,6,3.42,4.25,7.63-.85,9.62-3.77,3,2.68,5.25,5.92,4.64,10.17C50.07,25.14,47.26,27.56,44.66,29.79Z"/><path class="cls-2" d="M12.21,48.43a18.17,18.17,0,0,1-7.7.69c-3-.53-3-4.31-2.71-7.12a10.69,10.69,0,0,0,4.54,4.39A16.29,16.29,0,0,0,12.21,48.43Z"/><path class="cls-2" d="M20.22,42.3c-2.43.29-5-.53-7.26-1.38a14.62,14.62,0,0,1-6-3.8c-1.66-1.94.32-3.24,1.87-4.32a4.63,4.63,0,0,0,.09.49c.61,2.63,3.57,4.38,5.87,5.3a17.58,17.58,0,0,0,7.09,1.17C22,41.08,22.29,42.05,20.22,42.3Z"/><path class="cls-2" d="M25.87,35c-.56,4.09-6.95,3-9.74,2a9.13,9.13,0,0,1-5.07-3.62c-1.25-2.15.81-4,2.2-5.48a4.79,4.79,0,0,0,.11,2c.67,2.43,3.36,3.72,5.54,4.44A29.54,29.54,0,0,0,25.87,35Z"/><path class="cls-2" d="M18.67,44.32c-1.11,1.19-1.85,2-3.8,2.2a13.35,13.35,0,0,1-6.62-1.41,10.35,10.35,0,0,1-4.51-3.62c-1.14-1.78-.24-3.3.9-4.68.8,2.85,4.61,4.7,7.07,5.73A20.65,20.65,0,0,0,18.67,44.32Z"/><path class="cls-2" d="M29.56,31.55a.67.67,0,0,0-.14.15c-1.74,2.5-6.8,1.49-9.25.87-1.68-.43-3.61-1.19-4.6-2.7-1.24-1.89.55-4.23,1.79-5.77.9,2.24,3.23,3.87,5.22,5A17.8,17.8,0,0,0,29.56,31.55Z"/><path class="cls-2" d="M33,27.26c-.33,1.71-.61,2.33-2.58,2.3a14.75,14.75,0,0,1-6.45-2,11.3,11.3,0,0,1-4.61-3.91c-1.21-2.08,1.13-3.23,2.62-4.13a10.78,10.78,0,0,0,3.75,4.39A19.29,19.29,0,0,0,33,27.26Z"/><path class="cls-2" d="M37,24.89a4.73,4.73,0,0,1-2.87.47A16.33,16.33,0,0,1,28.1,23c-1.65-1-3.49-2.45-4.22-4.32s.64-3,2-4c2.34,2.1,4.76,4.11,7.15,6.17A45.4,45.4,0,0,1,37,24.89Z"/><path class="cls-2" d="M50.58,21.53c-.51,3.61-3.32,6-5.92,8.26-3.77-3.1-6.55-7.17-10.21-10.4C29.6,15.1,24.34,11.31,19.65,6.84l0,0c3.07-7,14.11-5.57,19.15-1.28a13.27,13.27,0,0,0-4.13,3.61c-1.21,1.95.48,4.5,1.67,6,3.42,4.25,7.63-.85,9.62-3.77C48.94,14,51.19,17.28,50.58,21.53Z"/></g></svg>